<?xml version="1.0"?>
<svg xmlns="http://www.w3.org/2000/svg" xmlns:xlink="http://www.w3.org/1999/xlink" version="1.1" viewBox="0 0 252 252" width="100px" height="100px"><g fill="none" fill-rule="nonzero" stroke="none" stroke-width="1" stroke-linecap="butt" stroke-linejoin="miter" stroke-miterlimit="10" stroke-dasharray="" stroke-dashoffset="0" font-family="none" font-weight="none" font-size="none" text-anchor="none" style="mix-blend-mode: normal"><path d="M0,252v-252h252v252z" fill="none"/><path d="M126,239.4c-62.62909,0 -113.4,-50.77091 -113.4,-113.4v0c0,-62.62909 50.77091,-113.4 113.4,-113.4v0c62.62909,0 113.4,50.77091 113.4,113.4v0c0,62.62909 -50.77091,113.4 -113.4,113.4z" fill="#ffffff"/><g id="original-icon" fill="#000000"><path d="M126,25.2c-55.6668,0 -100.8,45.1332 -100.8,100.8c0,47.2332 32.5248,86.7552 76.3728,97.692c-0.4704,-1.3608 -0.7728,-2.94 -0.7728,-4.8972v-17.2284c-4.0908,0 -10.9452,0 -12.6672,0c-6.8964,0 -13.0284,-2.9652 -16.002,-8.4756c-3.3012,-6.1236 -3.8724,-15.4896 -12.054,-21.2184c-2.4276,-1.9068 -0.5796,-4.0824 2.2176,-3.7884c5.166,1.4616 9.45,5.0064 13.482,10.2648c4.0152,5.2668 5.9052,6.4596 13.4064,6.4596c3.6372,0 9.0804,-0.21 14.2044,-1.0164c2.7552,-6.9972 7.518,-13.44 13.3392,-16.4808c-33.5664,-3.4524 -49.5852,-20.1516 -49.5852,-42.8232c0,-9.7608 4.158,-19.2024 11.2224,-27.1572c-2.3184,-7.896 -5.2332,-23.9988 0.8904,-30.1308c15.1032,0 24.234,9.7944 26.4264,12.4404c7.5264,-2.5788 15.792,-4.0404 24.4776,-4.0404c8.7024,0 17.0016,1.4616 24.5448,4.0572c2.1672,-2.6292 11.3064,-12.4572 26.4432,-12.4572c6.1488,6.1404 3.2004,22.3104 0.8568,30.1896c7.0224,7.938 11.1552,17.3544 11.1552,27.0984c0,22.6548 -15.9936,39.3456 -49.5096,42.8148c9.2232,4.8132 15.9516,18.3372 15.9516,28.5264v22.9656c0,0.8736 -0.1932,1.5036 -0.294,2.2512c39.2784,-13.7676 67.494,-51.0636 67.494,-95.046c0,-55.6668 -45.1332,-100.8 -100.8,-100.8z"/></g><path d="M126,252c-69.58788,0 -126,-56.41212 -126,-126v0c0,-69.58788 56.41212,-126 126,-126v0c69.58788,0 126,56.41212 126,126v0c0,69.58788 -56.41212,126 -126,126z" fill="none"/><path d="M126,246.96c-66.80436,0 -120.96,-54.15564 -120.96,-120.96v0c0,-66.80436 54.15564,-120.96 120.96,-120.96h0c66.80436,0 120.96,54.15564 120.96,120.96v0c0,66.80436 -54.15564,120.96 -120.96,120.96z" fill="none"/><path d="M126,252c-69.58788,0 -126,-56.41212 -126,-126v0c0,-69.58788 56.41212,-126 126,-126v0c69.58788,0 126,56.41212 126,126v0c0,69.58788 -56.41212,126 -126,126z" fill="none"/><path d="M126,246.96c-66.80436,0 -120.96,-54.15564 -120.96,-120.96v0c0,-66.80436 54.15564,-120.96 120.96,-120.96h0c66.80436,0 120.96,54.15564 120.96,120.96v0c0,66.80436 -54.15564,120.96 -120.96,120.96z" fill="none"/><path d="M126,252c-69.58788,0 -126,-56.41212 -126,-126v0c0,-69.58788 56.41212,-126 126,-126v0c69.58788,0 126,56.41212 126,126v0c0,69.58788 -56.41212,126 -126,126z" fill="none"/><path d="M126,246.96c-66.80436,0 -120.96,-54.15564 -120.96,-120.96v0c0,-66.80436 54.15564,-120.96 120.96,-120.96h0c66.80436,0 120.96,54.15564 120.96,120.96v0c0,66.80436 -54.15564,120.96 -120.96,120.96z" fill="none"/><path d="M126,252c-69.58788,0 -126,-56.41212 -126,-126v0c0,-69.58788 56.41212,-126 126,-126v0c69.58788,0 126,56.41212 126,126v0c0,69.58788 -56.41212,126 -126,126z" fill="none"/><path d="M126,246.96c-66.80436,0 -120.96,-54.15564 -120.96,-120.96v0c0,-66.80436 54.15564,-120.96 120.96,-120.96h0c66.80436,0 120.96,54.15564 120.96,120.96v0c0,66.80436 -54.15564,120.96 -120.96,120.96z" fill="none"/><path d="M126,252c-69.58788,0 -126,-56.41212 -126,-126v0c0,-69.58788 56.41212,-126 126,-126v0c69.58788,0 126,56.41212 126,126v0c0,69.58788 -56.41212,126 -126,126z" fill="none"/><path d="M126,246.96c-66.80436,0 -120.96,-54.15564 -120.96,-120.96v0c0,-66.80436 54.15564,-120.96 120.96,-120.96h0c66.80436,0 120.96,54.15564 120.96,120.96v0c0,66.80436 -54.15564,120.96 -120.96,120.96z" fill="none"/><path d="M126,252c-69.58788,0 -126,-56.41212 -126,-126v0c0,-69.58788 56.41212,-126 126,-126v0c69.58788,0 126,56.41212 126,126v0c0,69.58788 -56.41212,126 -126,126z" fill="none"/><path d="M126,246.96c-66.80436,0 -120.96,-54.15564 -120.96,-120.96v0c0,-66.80436 54.15564,-120.96 120.96,-120.96h0c66.80436,0 120.96,54.15564 120.96,120.96v0c0,66.80436 -54.15564,120.96 -120.96,120.96z" fill="none"/><path d="M126,252c-69.58788,0 -126,-56.41212 -126,-126v0c0,-69.58788 56.41212,-126 126,-126v0c69.58788,0 126,56.41212 126,126v0c0,69.58788 -56.41212,126 -126,126z" fill="none"/><path d="M126,246.96c-66.80436,0 -120.96,-54.15564 -120.96,-120.96v0c0,-66.80436 54.15564,-120.96 120.96,-120.96h0c66.80436,0 120.96,54.15564 120.96,120.96v0c0,66.80436 -54.15564,120.96 -120.96,120.96z" fill="none"/><path d="M126,252c-69.58788,0 -126,-56.41212 -126,-126v0c0,-69.58788 56.41212,-126 126,-126v0c69.58788,0 126,56.41212 126,126v0c0,69.58788 -56.41212,126 -126,126z" fill="none"/><path d="M126,246.96c-66.80436,0 -120.96,-54.15564 -120.96,-120.96v0c0,-66.80436 54.15564,-120.96 120.96,-120.96h0c66.80436,0 120.96,54.15564 120.96,120.96v0c0,66.80436 -54.15564,120.96 -120.96,120.96z" fill="none"/><path d="M126,252c-69.58788,0 -126,-56.41212 -126,-126v0c0,-69.58788 56.41212,-126 126,-126v0c69.58788,0 126,56.41212 126,126v0c0,69.58788 -56.41212,126 -126,126z" fill="none"/><path d="M126,246.96c-66.80436,0 -120.96,-54.15564 -120.96,-120.96v0c0,-66.80436 54.15564,-120.96 120.96,-120.96h0c66.80436,0 120.96,54.15564 120.96,120.96v0c0,66.80436 -54.15564,120.96 -120.96,120.96z" fill="none"/><path d="M126,252c-69.58788,0 -126,-56.41212 -126,-126v0c0,-69.58788 56.41212,-126 126,-126v0c69.58788,0 126,56.41212 126,126v0c0,69.58788 -56.41212,126 -126,126z" fill="none"/><path d="M126,246.96c-66.80436,0 -120.96,-54.15564 -120.96,-120.96v0c0,-66.80436 54.15564,-120.96 120.96,-120.96h0c66.80436,0 120.96,54.15564 120.96,120.96v0c0,66.80436 -54.15564,120.96 -120.96,120.96z" fill="none"/><path d="M126,252c-69.58788,0 -126,-56.41212 -126,-126v0c0,-69.58788 56.41212,-126 126,-126v0c69.58788,0 126,56.41212 126,126v0c0,69.58788 -56.41212,126 -126,126z" fill="none"/><path d="M126,246.96c-66.80436,0 -120.96,-54.15564 -120.96,-120.96v0c0,-66.80436 54.15564,-120.96 120.96,-120.96h0c66.80436,0 120.96,54.15564 120.96,120.96v0c0,66.80436 -54.15564,120.96 -120.96,120.96z" fill="none"/><path d="M126,252c-69.58788,0 -126,-56.41212 -126,-126v0c0,-69.58788 56.41212,-126 126,-126v0c69.58788,0 126,56.41212 126,126v0c0,69.58788 -56.41212,126 -126,126z" fill="none"/><path d="M126,246.96c-66.80436,0 -120.96,-54.15564 -120.96,-120.96v0c0,-66.80436 54.15564,-120.96 120.96,-120.96h0c66.80436,0 120.96,54.15564 120.96,120.96v0c0,66.80436 -54.15564,120.96 -120.96,120.96z" fill="none"/><path d="M126,252c-69.58788,0 -126,-56.41212 -126,-126v0c0,-69.58788 56.41212,-126 126,-126v0c69.58788,0 126,56.41212 126,126v0c0,69.58788 -56.41212,126 -126,126z" fill="none"/><path d="M126,246.96c-66.80436,0 -120.96,-54.15564 -120.96,-120.96v0c0,-66.80436 54.15564,-120.96 120.96,-120.96h0c66.80436,0 120.96,54.15564 120.96,120.96v0c0,66.80436 -54.15564,120.96 -120.96,120.96z" fill="none"/><path d="M126,252c-69.58788,0 -126,-56.41212 -126,-126v0c0,-69.58788 56.41212,-126 126,-126v0c69.58788,0 126,56.41212 126,126v0c0,69.58788 -56.41212,126 -126,126z" fill="none"/><path d="M126,246.96c-66.80436,0 -120.96,-54.15564 -120.96,-120.96v0c0,-66.80436 54.15564,-120.96 120.96,-120.96h0c66.80436,0 120.96,54.15564 120.96,120.96v0c0,66.80436 -54.15564,120.96 -120.96,120.96z" fill="none"/><path d="M126,252c-69.58788,0 -126,-56.41212 -126,-126v0c0,-69.58788 56.41212,-126 126,-126v0c69.58788,0 126,56.41212 126,126v0c0,69.58788 -56.41212,126 -126,126z" fill="none"/><path d="M126,246.96c-66.80436,0 -120.96,-54.15564 -120.96,-120.96v0c0,-66.80436 54.15564,-120.96 120.96,-120.96h0c66.80436,0 120.96,54.15564 120.96,120.96v0c0,66.80436 -54.15564,120.96 -120.96,120.96z" fill="none"/><path d="M126,252c-69.58788,0 -126,-56.41212 -126,-126v0c0,-69.58788 56.41212,-126 126,-126v0c69.58788,0 126,56.41212 126,126v0c0,69.58788 -56.41212,126 -126,126z" fill="none"/><path d="M126,246.96c-66.80436,0 -120.96,-54.15564 -120.96,-120.96v0c0,-66.80436 54.15564,-120.96 120.96,-120.96h0c66.80436,0 120.96,54.15564 120.96,120.96v0c0,66.80436 -54.15564,120.96 -120.96,120.96z" fill="none"/><path d="M126,252c-69.58788,0 -126,-56.41212 -126,-126v0c0,-69.58788 56.41212,-126 126,-126v0c69.58788,0 126,56.41212 126,126v0c0,69.58788 -56.41212,126 -126,126z" fill="none"/><path d="M126,246.96c-66.80436,0 -120.96,-54.15564 -120.96,-120.96v0c0,-66.80436 54.15564,-120.96 120.96,-120.96h0c66.80436,0 120.96,54.15564 120.96,120.96v0c0,66.80436 -54.15564,120.96 -120.96,120.96z" fill="none"/><path d="M126,252c-69.58788,0 -126,-56.41212 -126,-126v0c0,-69.58788 56.41212,-126 126,-126v0c69.58788,0 126,56.41212 126,126v0c0,69.58788 -56.41212,126 -126,126z" fill="none"/><path d="M126,246.96c-66.80436,0 -120.96,-54.15564 -120.96,-120.96v0c0,-66.80436 54.15564,-120.96 120.96,-120.96h0c66.80436,0 120.96,54.15564 120.96,120.96v0c0,66.80436 -54.15564,120.96 -120.96,120.96z" fill="none"/><path d="M126,252c-69.58788,0 -126,-56.41212 -126,-126v0c0,-69.58788 56.41212,-126 126,-126v0c69.58788,0 126,56.41212 126,126v0c0,69.58788 -56.41212,126 -126,126z" fill="none"/><path d="M126,246.96c-66.80436,0 -120.96,-54.15564 -120.96,-120.96v0c0,-66.80436 54.15564,-120.96 120.96,-120.96h0c66.80436,0 120.96,54.15564 120.96,120.96v0c0,66.80436 -54.15564,120.96 -120.96,120.96z" fill="none"/><path d="M126,252c-69.58788,0 -126,-56.41212 -126,-126v0c0,-69.58788 56.41212,-126 126,-126v0c69.58788,0 126,56.41212 126,126v0c0,69.58788 -56.41212,126 -126,126z" fill="none"/><path d="M126,246.96c-66.80436,0 -120.96,-54.15564 -120.96,-120.96v0c0,-66.80436 54.15564,-120.96 120.96,-120.96h0c66.80436,0 120.96,54.15564 120.96,120.96v0c0,66.80436 -54.15564,120.96 -120.96,120.96z" fill="none"/><path d="M126,252c-69.58788,0 -126,-56.41212 -126,-126v0c0,-69.58788 56.41212,-126 126,-126v0c69.58788,0 126,56.41212 126,126v0c0,69.58788 -56.41212,126 -126,126z" fill="none"/><path d="M126,246.96c-66.80436,0 -120.96,-54.15564 -120.96,-120.96v0c0,-66.80436 54.15564,-120.96 120.96,-120.96h0c66.80436,0 120.96,54.15564 120.96,120.96v0c0,66.80436 -54.15564,120.96 -120.96,120.96z" fill="none"/><path d="M126,262.08c-75.15491,0 -136.08,-60.92509 -136.08,-136.08v0c0,-75.15491 60.92509,-136.08 136.08,-136.08h0c75.15491,0 136.08,60.92509 136.08,136.08v0c0,75.15491 -60.92509,136.08 -136.08,136.08z" fill="none"/><path d="M126,257.04c-72.37139,0 -131.04,-58.66861 -131.04,-131.04v0c0,-72.37139 58.66861,-131.04 131.04,-131.04v0c72.37139,0 131.04,58.66861 131.04,131.04v0c0,72.37139 -58.66861,131.04 -131.04,131.04z" fill="none"/><path d="M126,262.08c-75.15491,0 -136.08,-60.92509 -136.08,-136.08v0c0,-75.15491 60.92509,-136.08 136.08,-136.08h0c75.15491,0 136.08,60.92509 136.08,136.08v0c0,75.15491 -60.92509,136.08 -136.08,136.08z" fill="none"/><path d="M126,257.04c-72.37139,0 -131.04,-58.66861 -131.04,-131.04v0c0,-72.37139 58.66861,-131.04 131.04,-131.04v0c72.37139,0 131.04,58.66861 131.04,131.04v0c0,72.37139 -58.66861,131.04 -131.04,131.04z" fill="none"/><path d="M126,262.08c-75.15491,0 -136.08,-60.92509 -136.08,-136.08v0c0,-75.15491 60.92509,-136.08 136.08,-136.08h0c75.15491,0 136.08,60.92509 136.08,136.08v0c0,75.15491 -60.92509,136.08 -136.08,136.08z" fill="none"/><path d="M126,257.04c-72.37139,0 -131.04,-58.66861 -131.04,-131.04v0c0,-72.37139 58.66861,-131.04 131.04,-131.04v0c72.37139,0 131.04,58.66861 131.04,131.04v0c0,72.37139 -58.66861,131.04 -131.04,131.04z" fill="none"/><path d="M126,262.08c-75.15491,0 -136.08,-60.92509 -136.08,-136.08v0c0,-75.15491 60.92509,-136.08 136.08,-136.08h0c75.15491,0 136.08,60.92509 136.08,136.08v0c0,75.15491 -60.92509,136.08 -136.08,136.08z" fill="none"/><path d="M126,257.04c-72.37139,0 -131.04,-58.66861 -131.04,-131.04v0c0,-72.37139 58.66861,-131.04 131.04,-131.04v0c72.37139,0 131.04,58.66861 131.04,131.04v0c0,72.37139 -58.66861,131.04 -131.04,131.04z" fill="none"/><path d="M126,262.08c-75.15491,0 -136.08,-60.92509 -136.08,-136.08v0c0,-75.15491 60.92509,-136.08 136.08,-136.08h0c75.15491,0 136.08,60.92509 136.08,136.08v0c0,75.15491 -60.92509,136.08 -136.08,136.08z" fill="none"/><path d="M126,257.04c-72.37139,0 -131.04,-58.66861 -131.04,-131.04v0c0,-72.37139 58.66861,-131.04 131.04,-131.04v0c72.37139,0 131.04,58.66861 131.04,131.04v0c0,72.37139 -58.66861,131.04 -131.04,131.04z" fill="none"/><path d="M126,262.08c-75.15491,0 -136.08,-60.92509 -136.08,-136.08v0c0,-75.15491 60.92509,-136.08 136.08,-136.08h0c75.15491,0 136.08,60.92509 136.08,136.08v0c0,75.15491 -60.92509,136.08 -136.08,136.08z" fill="none"/><path d="M126,257.04c-72.37139,0 -131.04,-58.66861 -131.04,-131.04v0c0,-72.37139 58.66861,-131.04 131.04,-131.04v0c72.37139,0 131.04,58.66861 131.04,131.04v0c0,72.37139 -58.66861,131.04 -131.04,131.04z" fill="none"/><path d="M126,262.08c-75.15491,0 -136.08,-60.92509 -136.08,-136.08v0c0,-75.15491 60.92509,-136.08 136.08,-136.08h0c75.15491,0 136.08,60.92509 136.08,136.08v0c0,75.15491 -60.92509,136.08 -136.08,136.08z" fill="none"/><path d="M126,257.04c-72.37139,0 -131.04,-58.66861 -131.04,-131.04v0c0,-72.37139 58.66861,-131.04 131.04,-131.04v0c72.37139,0 131.04,58.66861 131.04,131.04v0c0,72.37139 -58.66861,131.04 -131.04,131.04z" fill="none"/><path d="M126,262.08c-75.15491,0 -136.08,-60.92509 -136.08,-136.08v0c0,-75.15491 60.92509,-136.08 136.08,-136.08h0c75.15491,0 136.08,60.92509 136.08,136.08v0c0,75.15491 -60.92509,136.08 -136.08,136.08z" fill="none"/><path d="M126,257.04c-72.37139,0 -131.04,-58.66861 -131.04,-131.04v0c0,-72.37139 58.66861,-131.04 131.04,-131.04v0c72.37139,0 131.04,58.66861 131.04,131.04v0c0,72.37139 -58.66861,131.04 -131.04,131.04z" fill="none"/><path d="M126,262.08c-75.15491,0 -136.08,-60.92509 -136.08,-136.08v0c0,-75.15491 60.92509,-136.08 136.08,-136.08h0c75.15491,0 136.08,60.92509 136.08,136.08v0c0,75.15491 -60.92509,136.08 -136.08,136.08z" fill="none"/><path d="M126,257.04c-72.37139,0 -131.04,-58.66861 -131.04,-131.04v0c0,-72.37139 58.66861,-131.04 131.04,-131.04v0c72.37139,0 131.04,58.66861 131.04,131.04v0c0,72.37139 -58.66861,131.04 -131.04,131.04z" fill="none"/><path d="M126,262.08c-75.15491,0 -136.08,-60.92509 -136.08,-136.08v0c0,-75.15491 60.92509,-136.08 136.08,-136.08h0c75.15491,0 136.08,60.92509 136.08,136.08v0c0,75.15491 -60.92509,136.08 -136.08,136.08z" fill="none"/><path d="M126,257.04c-72.37139,0 -131.04,-58.66861 -131.04,-131.04v0c0,-72.37139 58.66861,-131.04 131.04,-131.04v0c72.37139,0 131.04,58.66861 131.04,131.04v0c0,72.37139 -58.66861,131.04 -131.04,131.04z" fill="none"/><path d="M126,262.08c-75.15491,0 -136.08,-60.92509 -136.08,-136.08v0c0,-75.15491 60.92509,-136.08 136.08,-136.08h0c75.15491,0 136.08,60.92509 136.08,136.08v0c0,75.15491 -60.92509,136.08 -136.08,136.08z" fill="none"/><path d="M126,257.04c-72.37139,0 -131.04,-58.66861 -131.04,-131.04v0c0,-72.37139 58.66861,-131.04 131.04,-131.04v0c72.37139,0 131.04,58.66861 131.04,131.04v0c0,72.37139 -58.66861,131.04 -131.04,131.04z" fill="none"/><path d="M126,262.08c-75.15491,0 -136.08,-60.92509 -136.08,-136.08v0c0,-75.15491 60.92509,-136.08 136.08,-136.08h0c75.15491,0 136.08,60.92509 136.08,136.08v0c0,75.15491 -60.92509,136.08 -136.08,136.08z" fill="none"/><path d="M126,257.04c-72.37139,0 -131.04,-58.66861 -131.04,-131.04v0c0,-72.37139 58.66861,-131.04 131.04,-131.04v0c72.37139,0 131.04,58.66861 131.04,131.04v0c0,72.37139 -58.66861,131.04 -131.04,131.04z" fill="none"/><path d="M126,262.08c-75.15491,0 -136.08,-60.92509 -136.08,-136.08v0c0,-75.15491 60.92509,-136.08 136.08,-136.08h0c75.15491,0 136.08,60.92509 136.08,136.08v0c0,75.15491 -60.92509,136.08 -136.08,136.08z" fill="none"/><path d="M126,257.04c-72.37139,0 -131.04,-58.66861 -131.04,-131.04v0c0,-72.37139 58.66861,-131.04 131.04,-131.04v0c72.37139,0 131.04,58.66861 131.04,131.04v0c0,72.37139 -58.66861,131.04 -131.04,131.04z" fill="none"/><path d="M126,262.08c-75.15491,0 -136.08,-60.92509 -136.08,-136.08v0c0,-75.15491 60.92509,-136.08 136.08,-136.08h0c75.15491,0 136.08,60.92509 136.08,136.08v0c0,75.15491 -60.92509,136.08 -136.08,136.08z" fill="none"/><path d="M126,257.04c-72.37139,0 -131.04,-58.66861 -131.04,-131.04v0c0,-72.37139 58.66861,-131.04 131.04,-131.04v0c72.37139,0 131.04,58.66861 131.04,131.04v0c0,72.37139 -58.66861,131.04 -131.04,131.04z" fill="none"/><path d="M126,262.08c-75.15491,0 -136.08,-60.92509 -136.08,-136.08v0c0,-75.15491 60.92509,-136.08 136.08,-136.08h0c75.15491,0 136.08,60.92509 136.08,136.08v0c0,75.15491 -60.92509,136.08 -136.08,136.08z" fill="none"/><path d="M126,257.04c-72.37139,0 -131.04,-58.66861 -131.04,-131.04v0c0,-72.37139 58.66861,-131.04 131.04,-131.04v0c72.37139,0 131.04,58.66861 131.04,131.04v0c0,72.37139 -58.66861,131.04 -131.04,131.04z" fill="none"/><path d="M126,262.08c-75.15491,0 -136.08,-60.92509 -136.08,-136.08v0c0,-75.15491 60.92509,-136.08 136.08,-136.08h0c75.15491,0 136.08,60.92509 136.08,136.08v0c0,75.15491 -60.92509,136.08 -136.08,136.08z" fill="none"/><path d="M126,257.04c-72.37139,0 -131.04,-58.66861 -131.04,-131.04v0c0,-72.37139 58.66861,-131.04 131.04,-131.04v0c72.37139,0 131.04,58.66861 131.04,131.04v0c0,72.37139 -58.66861,131.04 -131.04,131.04z" fill="none"/><path d="M126,262.08c-75.15491,0 -136.08,-60.92509 -136.08,-136.08v0c0,-75.15491 60.92509,-136.08 136.08,-136.08h0c75.15491,0 136.08,60.92509 136.08,136.08v0c0,75.15491 -60.92509,136.08 -136.08,136.08z" fill="none"/><path d="M126,257.04c-72.37139,0 -131.04,-58.66861 -131.04,-131.04v0c0,-72.37139 58.66861,-131.04 131.04,-131.04v0c72.37139,0 131.04,58.66861 131.04,131.04v0c0,72.37139 -58.66861,131.04 -131.04,131.04z" fill="none"/><path d="M126,262.08c-75.15491,0 -136.08,-60.92509 -136.08,-136.08v0c0,-75.15491 60.92509,-136.08 136.08,-136.08h0c75.15491,0 136.08,60.92509 136.08,136.08v0c0,75.15491 -60.92509,136.08 -136.08,136.08z" fill="none"/><path d="M126,257.04c-72.37139,0 -131.04,-58.66861 -131.04,-131.04v0c0,-72.37139 58.66861,-131.04 131.04,-131.04v0c72.37139,0 131.04,58.66861 131.04,131.04v0c0,72.37139 -58.66861,131.04 -131.04,131.04z" fill="none"/><path d="M126,262.08c-75.15491,0 -136.08,-60.92509 -136.08,-136.08v0c0,-75.15491 60.92509,-136.08 136.08,-136.08h0c75.15491,0 136.08,60.92509 136.08,136.08v0c0,75.15491 -60.92509,136.08 -136.08,136.08z" fill="none"/><path d="M126,257.04c-72.37139,0 -131.04,-58.66861 -131.04,-131.04v0c0,-72.37139 58.66861,-131.04 131.04,-131.04v0c72.37139,0 131.04,58.66861 131.04,131.04v0c0,72.37139 -58.66861,131.04 -131.04,131.04z" fill="none"/><path d="M126,262.08c-75.15491,0 -136.08,-60.92509 -136.08,-136.08v0c0,-75.15491 60.92509,-136.08 136.08,-136.08h0c75.15491,0 136.08,60.92509 136.08,136.08v0c0,75.15491 -60.92509,136.08 -136.08,136.08z" fill="none"/><path d="M126,257.04c-72.37139,0 -131.04,-58.66861 -131.04,-131.04v0c0,-72.37139 58.66861,-131.04 131.04,-131.04v0c72.37139,0 131.04,58.66861 131.04,131.04v0c0,72.37139 -58.66861,131.04 -131.04,131.04z" fill="none"/><path d="M126,262.08c-75.15491,0 -136.08,-60.92509 -136.08,-136.08v0c0,-75.15491 60.92509,-136.08 136.08,-136.08h0c75.15491,0 136.08,60.92509 136.08,136.08v0c0,75.15491 -60.92509,136.08 -136.08,136.08z" fill="none"/><path d="M126,257.04c-72.37139,0 -131.04,-58.66861 -131.04,-131.04v0c0,-72.37139 58.66861,-131.04 131.04,-131.04v0c72.37139,0 131.04,58.66861 131.04,131.04v0c0,72.37139 -58.66861,131.04 -131.04,131.04z" fill="none"/><path d="M126,262.08c-75.15491,0 -136.08,-60.92509 -136.08,-136.08v0c0,-75.15491 60.92509,-136.08 136.08,-136.08h0c75.15491,0 136.08,60.92509 136.08,136.08v0c0,75.15491 -60.92509,136.08 -136.08,136.08z" fill="none"/><path d="M126,257.04c-72.37139,0 -131.04,-58.66861 -131.04,-131.04v0c0,-72.37139 58.66861,-131.04 131.04,-131.04v0c72.37139,0 131.04,58.66861 131.04,131.04v0c0,72.37139 -58.66861,131.04 -131.04,131.04z" fill="none"/><path d="M126,262.08c-75.15491,0 -136.08,-60.92509 -136.08,-136.08v0c0,-75.15491 60.92509,-136.08 136.08,-136.08h0c75.15491,0 136.08,60.92509 136.08,136.08v0c0,75.15491 -60.92509,136.08 -136.08,136.08z" fill="none"/><path d="M126,257.04c-72.37139,0 -131.04,-58.66861 -131.04,-131.04v0c0,-72.37139 58.66861,-131.04 131.04,-131.04v0c72.37139,0 131.04,58.66861 131.04,131.04v0c0,72.37139 -58.66861,131.04 -131.04,131.04z" fill="none"/><path d="M126,262.08c-75.15491,0 -136.08,-60.92509 -136.08,-136.08v0c0,-75.15491 60.92509,-136.08 136.08,-136.08h0c75.15491,0 136.08,60.92509 136.08,136.08v0c0,75.15491 -60.92509,136.08 -136.08,136.08z" fill="none"/><path d="M126,257.04c-72.37139,0 -131.04,-58.66861 -131.04,-131.04v0c0,-72.37139 58.66861,-131.04 131.04,-131.04v0c72.37139,0 131.04,58.66861 131.04,131.04v0c0,72.37139 -58.66861,131.04 -131.04,131.04z" fill="none"/><path d="M126,262.08c-75.15491,0 -136.08,-60.92509 -136.08,-136.08v0c0,-75.15491 60.92509,-136.08 136.08,-136.08h0c75.15491,0 136.08,60.92509 136.08,136.08v0c0,75.15491 -60.92509,136.08 -136.08,136.08z" fill="none"/><path d="M126,257.04c-72.37139,0 -131.04,-58.66861 -131.04,-131.04v0c0,-72.37139 58.66861,-131.04 131.04,-131.04v0c72.37139,0 131.04,58.66861 131.04,131.04v0c0,72.37139 -58.66861,131.04 -131.04,131.04z" fill="none"/><path d="M126,262.08c-75.15491,0 -136.08,-60.92509 -136.08,-136.08v0c0,-75.15491 60.92509,-136.08 136.08,-136.08h0c75.15491,0 136.08,60.92509 136.08,136.08v0c0,75.15491 -60.92509,136.08 -136.08,136.08z" fill="none"/><path d="M126,257.04c-72.37139,0 -131.04,-58.66861 -131.04,-131.04v0c0,-72.37139 58.66861,-131.04 131.04,-131.04v0c72.37139,0 131.04,58.66861 131.04,131.04v0c0,72.37139 -58.66861,131.04 -131.04,131.04z" fill="none"/><path d="M126,262.08c-75.15491,0 -136.08,-60.92509 -136.08,-136.08v0c0,-75.15491 60.92509,-136.08 136.08,-136.08h0c75.15491,0 136.08,60.92509 136.08,136.08v0c0,75.15491 -60.92509,136.08 -136.08,136.08z" fill="none"/><path d="M126,257.04c-72.37139,0 -131.04,-58.66861 -131.04,-131.04v0c0,-72.37139 58.66861,-131.04 131.04,-131.04v0c72.37139,0 131.04,58.66861 131.04,131.04v0c0,72.37139 -58.66861,131.04 -131.04,131.04z" fill="none"/><path d="M126,262.08c-75.15491,0 -136.08,-60.92509 -136.08,-136.08v0c0,-75.15491 60.92509,-136.08 136.08,-136.08h0c75.15491,0 136.08,60.92509 136.08,136.08v0c0,75.15491 -60.92509,136.08 -136.08,136.08z" fill="none"/><path d="M126,257.04c-72.37139,0 -131.04,-58.66861 -131.04,-131.04v0c0,-72.37139 58.66861,-131.04 131.04,-131.04v0c72.37139,0 131.04,58.66861 131.04,131.04v0c0,72.37139 -58.66861,131.04 -131.04,131.04z" fill="none"/><path d="M126,262.08c-75.15491,0 -136.08,-60.92509 -136.08,-136.08v0c0,-75.15491 60.92509,-136.08 136.08,-136.08h0c75.15491,0 136.08,60.92509 136.08,136.08v0c0,75.15491 -60.92509,136.08 -136.08,136.08z" fill="none"/><path d="M126,257.04c-72.37139,0 -131.04,-58.66861 -131.04,-131.04v0c0,-72.37139 58.66861,-131.04 131.04,-131.04v0c72.37139,0 131.04,58.66861 131.04,131.04v0c0,72.37139 -58.66861,131.04 -131.04,131.04z" fill="none"/><path d="M126,262.08c-75.15491,0 -136.08,-60.92509 -136.08,-136.08v0c0,-75.15491 60.92509,-136.08 136.08,-136.08h0c75.15491,0 136.08,60.92509 136.08,136.08v0c0,75.15491 -60.92509,136.08 -136.08,136.08z" fill="none"/><path d="M126,257.04c-72.37139,0 -131.04,-58.66861 -131.04,-131.04v0c0,-72.37139 58.66861,-131.04 131.04,-131.04v0c72.37139,0 131.04,58.66861 131.04,131.04v0c0,72.37139 -58.66861,131.04 -131.04,131.04z" fill="none"/><path d="M126,262.08c-75.15491,0 -136.08,-60.92509 -136.08,-136.08v0c0,-75.15491 60.92509,-136.08 136.08,-136.08h0c75.15491,0 136.08,60.92509 136.08,136.08v0c0,75.15491 -60.92509,136.08 -136.08,136.08z" fill="none"/><path d="M126,257.04c-72.37139,0 -131.04,-58.66861 -131.04,-131.04v0c0,-72.37139 58.66861,-131.04 131.04,-131.04v0c72.37139,0 131.04,58.66861 131.04,131.04v0c0,72.37139 -58.66861,131.04 -131.04,131.04z" fill="none"/><path d="M126,262.08c-75.15491,0 -136.08,-60.92509 -136.08,-136.08v0c0,-75.15491 60.92509,-136.08 136.08,-136.08h0c75.15491,0 136.08,60.92509 136.08,136.08v0c0,75.15491 -60.92509,136.08 -136.08,136.08z" fill="none"/><path d="M126,257.04c-72.37139,0 -131.04,-58.66861 -131.04,-131.04v0c0,-72.37139 58.66861,-131.04 131.04,-131.04v0c72.37139,0 131.04,58.66861 131.04,131.04v0c0,72.37139 -58.66861,131.04 -131.04,131.04z" fill="none"/><path d="M126,262.08c-75.15491,0 -136.08,-60.92509 -136.08,-136.08v0c0,-75.15491 60.92509,-136.08 136.08,-136.08h0c75.15491,0 136.08,60.92509 136.08,136.08v0c0,75.15491 -60.92509,136.08 -136.08,136.08z" fill="none"/><path d="M126,257.04c-72.37139,0 -131.04,-58.66861 -131.04,-131.04v0c0,-72.37139 58.66861,-131.04 131.04,-131.04v0c72.37139,0 131.04,58.66861 131.04,131.04v0c0,72.37139 -58.66861,131.04 -131.04,131.04z" fill="none"/><path d="M126,262.08c-75.15491,0 -136.08,-60.92509 -136.08,-136.08v0c0,-75.15491 60.92509,-136.08 136.08,-136.08h0c75.15491,0 136.08,60.92509 136.08,136.08v0c0,75.15491 -60.92509,136.08 -136.08,136.08z" fill="none"/><path d="M126,257.04c-72.37139,0 -131.04,-58.66861 -131.04,-131.04v0c0,-72.37139 58.66861,-131.04 131.04,-131.04v0c72.37139,0 131.04,58.66861 131.04,131.04v0c0,72.37139 -58.66861,131.04 -131.04,131.04z" fill="none"/><path d="M126,262.08c-75.15491,0 -136.08,-60.92509 -136.08,-136.08v0c0,-75.15491 60.92509,-136.08 136.08,-136.08h0c75.15491,0 136.08,60.92509 136.08,136.08v0c0,75.15491 -60.92509,136.08 -136.08,136.08z" fill="none"/><path d="M126,257.04c-72.37139,0 -131.04,-58.66861 -131.04,-131.04v0c0,-72.37139 58.66861,-131.04 131.04,-131.04v0c72.37139,0 131.04,58.66861 131.04,131.04v0c0,72.37139 -58.66861,131.04 -131.04,131.04z" fill="none"/><path d="M126,262.08c-75.15491,0 -136.08,-60.92509 -136.08,-136.08v0c0,-75.15491 60.92509,-136.08 136.08,-136.08h0c75.15491,0 136.08,60.92509 136.08,136.08v0c0,75.15491 -60.92509,136.08 -136.08,136.08z" fill="none"/><path d="M126,257.04c-72.37139,0 -131.04,-58.66861 -131.04,-131.04v0c0,-72.37139 58.66861,-131.04 131.04,-131.04v0c72.37139,0 131.04,58.66861 131.04,131.04v0c0,72.37139 -58.66861,131.04 -131.04,131.04z" fill="none"/><path d="M126,262.08c-75.15491,0 -136.08,-60.92509 -136.08,-136.08v0c0,-75.15491 60.92509,-136.08 136.08,-136.08h0c75.15491,0 136.08,60.92509 136.08,136.08v0c0,75.15491 -60.92509,136.08 -136.08,136.08z" fill="none"/><path d="M126,257.04c-72.37139,0 -131.04,-58.66861 -131.04,-131.04v0c0,-72.37139 58.66861,-131.04 131.04,-131.04v0c72.37139,0 131.04,58.66861 131.04,131.04v0c0,72.37139 -58.66861,131.04 -131.04,131.04z" fill="none"/><path d="M126,262.08c-75.15491,0 -136.08,-60.92509 -136.08,-136.08v0c0,-75.15491 60.92509,-136.08 136.08,-136.08h0c75.15491,0 136.08,60.92509 136.08,136.08v0c0,75.15491 -60.92509,136.08 -136.08,136.08z" fill="none"/><path d="M126,257.04c-72.37139,0 -131.04,-58.66861 -131.04,-131.04v0c0,-72.37139 58.66861,-131.04 131.04,-131.04v0c72.37139,0 131.04,58.66861 131.04,131.04v0c0,72.37139 -58.66861,131.04 -131.04,131.04z" fill="none"/><path d="M126,262.08c-75.15491,0 -136.08,-60.92509 -136.08,-136.08v0c0,-75.15491 60.92509,-136.08 136.08,-136.08h0c75.15491,0 136.08,60.92509 136.08,136.08v0c0,75.15491 -60.92509,136.08 -136.08,136.08z" fill="none"/><path d="M126,257.04c-72.37139,0 -131.04,-58.66861 -131.04,-131.04v0c0,-72.37139 58.66861,-131.04 131.04,-131.04v0c72.37139,0 131.04,58.66861 131.04,131.04v0c0,72.37139 -58.66861,131.04 -131.04,131.04z" fill="none"/></g></svg>
