<?xml version="1.0"?>
<svg xmlns="http://www.w3.org/2000/svg" xmlns:xlink="http://www.w3.org/1999/xlink" version="1.1" viewBox="0 0 252 252" width="100px" height="100px"><g fill="none" fill-rule="nonzero" stroke="none" stroke-width="1" stroke-linecap="butt" stroke-linejoin="miter" stroke-miterlimit="10" stroke-dasharray="" stroke-dashoffset="0" font-family="none" font-weight="none" font-size="none" text-anchor="none" style="mix-blend-mode: normal"><path d="M0,252v-252h252v252z" fill="none"/><path d="M126,257.04c-72.37139,0 -131.04,-58.66861 -131.04,-131.04v0c0,-72.37139 58.66861,-131.04 131.04,-131.04h0c72.37139,0 131.04,58.66861 131.04,131.04v0c0,72.37139 -58.66861,131.04 -131.04,131.04z" fill="#ffffff"/><g id="original-icon" fill="#0077b5"><path d="M63.23962,44.14922c-12.8105,0 -22.11467,7.6769 -22.11467,18.23541c0,10.59543 9.52568,18.61035 22.11467,18.61035c12.8105,0 22.11467,-7.82514 22.11467,-18.82667c-0.59069,-10.59543 -9.71026,-18.01909 -22.11467,-18.01909zM44.78069,88.41461c-2.03048,0 -3.69179,1.6613 -3.69179,3.69179v107.06182c0,2.03048 1.6613,3.69179 3.69179,3.69179h36.91787c2.03048,0 3.69179,-1.6613 3.69179,-3.69179v-107.06182c0,-2.03048 -1.6613,-3.69179 -3.69179,-3.69179zM100.15749,88.41461c-2.03048,0 -3.69179,1.6613 -3.69179,3.69179v107.06182c0,2.03048 1.6613,3.69179 3.69179,3.69179h33.22608c2.03787,0 3.69179,-1.65392 3.69179,-3.69179v-55.3768v-0.92295v-0.92295c0,-8.74953 6.72136,-15.87641 15.2863,-16.54094c0.44301,-0.07384 0.88372,-0.0721 1.32674,-0.0721c0.44301,0 0.88372,-0.00173 1.32674,0.0721c8.56495,0.66452 15.2863,7.7914 15.2863,16.54094v57.2227c0,2.03787 1.65392,3.69179 3.69179,3.69179h33.22608c2.03048,0 3.69179,-1.6613 3.69179,-3.69179v-62.76038c0,-23.88586 -12.81396,-47.99323 -41.38839,-47.99323c-12.99509,0 -22.81178,5.02169 -28.75556,9.19341v-5.50163c0,-2.03048 -1.6613,-3.69179 -3.69179,-3.69179z"/></g></g></svg>
