<?xml version="1.0"?>
<svg xmlns="http://www.w3.org/2000/svg" xmlns:xlink="http://www.w3.org/1999/xlink" version="1.1" viewBox="0 0 252 252" width="64px" height="64px"><g fill="none" fill-rule="none" stroke="none" stroke-width="1" stroke-linecap="butt" stroke-linejoin="miter" stroke-miterlimit="10" stroke-dasharray="" stroke-dashoffset="0" font-family="none" font-weight="none" font-size="none" text-anchor="none" style="mix-blend-mode: normal"><path d="M0,252v-252h252v252z" fill="none" fill-rule="nonzero"/><path d="M126,214.2c-48.71151,0 -88.2,-39.48849 -88.2,-88.2v0c0,-48.71151 39.48849,-88.2 88.2,-88.2h0c48.71151,0 88.2,39.48849 88.2,88.2v0c0,48.71151 -39.48849,88.2 -88.2,88.2z" fill="#ffffff" fill-rule="nonzero"/><g id="original-icon" fill="#000000" fill-rule="evenodd"><g id="surface1"><path d="M126,50.4c-41.49837,0 -75.12257,33.6242 -75.12257,75.12257c0,33.18402 21.51949,61.35499 51.37777,71.2833c3.76591,0.68471 5.13533,-1.61396 5.13533,-3.61919c0,-1.78514 -0.07336,-6.50476 -0.09782,-12.76497c-20.90814,4.52399 -25.30985,-10.07503 -25.30985,-10.07503c-3.42355,-8.68115 -8.3388,-11.00428 -8.3388,-11.00428c-6.82266,-4.64626 0.51353,-4.54844 0.51353,-4.54844c7.53182,0.53799 11.49336,7.72745 11.49336,7.72745c6.70038,11.49336 17.58239,8.16763 21.86184,6.26021c0.68471,-4.86633 2.64103,-8.16762 4.76852,-10.05057c-16.6776,-1.88296 -34.21109,-8.33881 -34.21109,-37.12112c0,-8.21653 2.93448,-14.91691 7.72745,-20.17452c-0.75807,-1.88295 -3.35019,-9.53705 0.73362,-19.88107c0,0 6.30912,-2.00523 20.6636,7.70299c5.99122,-1.66287 12.42261,-2.4943 18.80509,-2.51875c6.38248,0.02445 12.81388,0.85588 18.80509,2.51875c14.35448,-9.70822 20.63914,-7.70299 20.63914,-7.70299c4.10827,10.34402 1.5406,17.99812 0.75807,19.88107c4.81743,5.2576 7.703,11.95799 7.703,20.17452c0,28.85567 -17.55795,35.18925 -34.28446,37.0722c2.68994,2.29868 5.08642,6.89602 5.08642,13.88985c0,10.05058 -0.07336,18.14484 -0.07336,20.61469c0,2.00522 1.34496,4.3528 5.15978,3.61919c29.83383,-9.95276 51.32887,-38.09927 51.32887,-71.2833c0,-41.49837 -33.6242,-75.12257 -75.12257,-75.12257z"/></g></g><path d="M126,252c-69.58788,0 -126,-56.41212 -126,-126v0c0,-69.58788 56.41212,-126 126,-126v0c69.58788,0 126,56.41212 126,126v0c0,69.58788 -56.41212,126 -126,126z" fill="none" fill-rule="nonzero"/><path d="M126,246.96c-66.80436,0 -120.96,-54.15564 -120.96,-120.96v0c0,-66.80436 54.15564,-120.96 120.96,-120.96h0c66.80436,0 120.96,54.15564 120.96,120.96v0c0,66.80436 -54.15564,120.96 -120.96,120.96z" fill="none" fill-rule="nonzero"/><path d="M126,252c-69.58788,0 -126,-56.41212 -126,-126v0c0,-69.58788 56.41212,-126 126,-126v0c69.58788,0 126,56.41212 126,126v0c0,69.58788 -56.41212,126 -126,126z" fill="none" fill-rule="nonzero"/><path d="M126,246.96c-66.80436,0 -120.96,-54.15564 -120.96,-120.96v0c0,-66.80436 54.15564,-120.96 120.96,-120.96h0c66.80436,0 120.96,54.15564 120.96,120.96v0c0,66.80436 -54.15564,120.96 -120.96,120.96z" fill="none" fill-rule="nonzero"/></g></svg>
